<svg width="110" height="24" viewBox="0 0 110 24" fill="none" xmlns="http://www.w3.org/2000/svg">
<rect width="110" height="24" fill="#F5F5F5"/>
<g id="Landing Page" clip-path="url(#clip0_4131_2)">
<rect width="1920" height="2000" transform="translate(-32 -22)" fill="#121319"/>
<g id="Frame 2">
<mask id="path-1-inside-1_4131_2" fill="white">
<path d="M-32 -22H1888V46H-32V-22Z"/>
</mask>
<path d="M1888 45H-32V47H1888V45Z" fill="white" fill-opacity="0.08" mask="url(#path-1-inside-1_4131_2)"/>
</g>
<g id="Hype_3_1a 1_layerstyle">
<g id="Group">
<g id="Vector">
<path d="M0 20.0752V10.0428V0.0103963H4.88626L4.93824 7.96356H13.6711L13.7127 0.0103963H18.7133L18.6613 20.0233L13.7231 20.0752L13.6711 12.0181H4.93824L4.88626 20.0752H0Z" fill="#03E1FF"/>
<path d="M24.3897 5.72835C22.508 3.358 20.7094 1.10201 20.4079 0.706948L19.8465 0.0103963L25.8244 0.0623777L28.0596 2.89017C29.2967 4.43922 30.326 5.73875 30.3572 5.75954C30.3884 5.79073 31.4384 4.50159 34.9835 0.0103963H37.9153C39.5371 0.0103963 40.8574 0.0311889 40.8574 0.0623777C40.8574 0.0935666 39.0589 2.38075 32.8523 10.1988V20.0752L27.914 20.0233L27.8101 10.0428L24.3897 5.72835Z" fill="#03E1FF"/>
<path d="M42.105 20.0648V10.0324L42.1154 0L53.8008 0.0519814L54.6325 0.332681C55.0899 0.488626 55.7553 0.810911 56.1192 1.03963C56.4726 1.26835 57.0029 1.70499 57.2836 2.00648C57.5747 2.30798 57.9697 2.85898 58.1672 3.22285C58.3648 3.59712 58.5935 4.23129 58.6871 4.62635C58.7702 5.0318 58.843 5.614 58.843 5.92588C58.843 6.24817 58.791 6.77838 58.7286 7.12146C58.6663 7.46454 58.4687 8.07792 58.2816 8.47298C58.0633 8.95121 57.7098 9.45023 57.2732 9.91806C56.9093 10.3131 56.3479 10.781 56.036 10.9785C55.7241 11.1656 55.0899 11.4463 53.8008 11.9038L47.0952 11.9557V20.0648H42.105Z" fill="#03E1FF"/>
<path d="M60.2881 20.0648V10.0324V0H66.2452C71.8488 0 72.2334 0.0103963 72.8676 0.197529C73.2627 0.311889 73.7929 0.582192 74.1152 0.831703C74.4478 1.07082 75.1444 1.81935 76.7974 3.89861L65.2783 3.95059V8.00514H71.9111C77.1093 8.00514 78.6479 8.03633 79.0534 8.15069C79.3445 8.22346 79.7811 8.38981 80.0202 8.50416C80.2594 8.62892 80.6336 8.88883 80.8416 9.06556C81.0495 9.2527 81.6837 9.98044 82.245 10.677C82.8064 11.3839 83.2327 11.9765 83.2015 12.0077C83.1599 12.0389 79.1158 12.0597 65.2783 12.0597V16.0103L85.2912 16.0623L85.9149 16.3014C86.258 16.4365 86.757 16.6964 87.0066 16.8732C87.2665 17.0603 87.9526 17.7984 88.5348 18.5158C89.1274 19.2227 89.6056 19.8673 89.6056 19.9297C89.6056 20.0336 86.6115 20.0648 60.2881 20.0648Z" fill="#03E1FF"/>
</g>
<path id="Vector_2" d="M78.0242 5.5204C77.4212 4.78227 76.9326 4.1273 76.9326 4.06492C76.9326 3.99215 82.3699 3.96096 93.0469 3.96096C101.915 3.96096 109.161 3.99215 109.161 4.03373C109.161 4.08572 107.737 5.87388 106.001 8.01551C104.264 10.1571 102.861 11.9453 102.882 11.9869C102.903 12.0389 103.079 12.0701 103.266 12.0701C103.443 12.0701 103.932 12.1428 104.327 12.226C104.722 12.3092 105.45 12.5691 105.938 12.8082C106.614 13.1409 106.999 13.4216 107.55 13.983C107.997 14.4404 108.392 14.9602 108.579 15.3449C108.745 15.688 108.943 16.1974 109.016 16.4885C109.099 16.7692 109.161 17.4761 109.161 18.0479C109.161 18.6405 109.088 19.3371 109.005 19.6594C108.922 19.9712 108.724 20.4911 108.569 20.8029C108.402 21.1148 107.945 21.7074 107.55 22.1129C106.978 22.6951 106.624 22.955 105.938 23.2877C105.45 23.5268 104.722 23.7867 104.327 23.8699C103.713 24.005 102.809 24.0258 93.8266 23.9738L93.2548 23.7035C92.9429 23.5476 92.4959 23.2773 92.2671 23.0901C92.0384 22.903 91.3731 22.1649 89.7305 20.1272L96.4049 20.0752C102.892 20.0232 103.09 20.0128 103.547 19.8049C103.807 19.6905 104.171 19.4202 104.358 19.2123C104.535 19.0044 104.732 18.6509 104.795 18.443C104.857 18.1831 104.857 17.9128 104.795 17.6633C104.732 17.4449 104.535 17.0915 104.358 16.8835C104.171 16.6756 103.807 16.4053 103.547 16.291C103.092 16.0739 102.905 16.0726 87.7529 15.9705L87.4849 15.9687L86.8091 15.6464C86.4348 15.4697 85.9462 15.1682 85.7279 14.9706C85.4992 14.7731 84.8546 14.0454 83.2744 12.0701L97.1534 12.0805L100.407 8.06749L90.7805 8.01551L90.601 8.01452C81.3688 7.96352 81.1295 7.9622 80.6233 7.75561C80.3322 7.63085 79.8852 7.39174 79.6149 7.2046C79.3238 7.00707 78.6688 6.31052 78.0242 5.5204Z" fill="#03E1FF"/>
<path id="Vector_3" d="M47.0952 8.01556L47.1056 5.97788V3.95061L53.0939 4.01299L53.4993 4.28329C53.7177 4.42884 54.0191 4.73033 54.1647 4.95905C54.3726 5.28133 54.4246 5.49965 54.4246 6.00907C54.4246 6.58087 54.3934 6.68483 54.0607 7.07989C53.8632 7.3294 53.5409 7.6205 53.333 7.74525C52.9899 7.95318 52.8132 7.96357 47.0952 8.01556Z" fill="#121319"/>
</g>
</g>
</g>
<defs>
<clipPath id="clip0_4131_2">
<rect width="1920" height="2000" fill="white" transform="translate(-32 -22)"/>
</clipPath>
</defs>
</svg>
